<svg width="65" height="65" viewBox="0 0 65 65" fill="none" xmlns="http://www.w3.org/2000/svg">
<path fill-rule="evenodd" clip-rule="evenodd" d="M40.1188 18.6176C38.9266 18.6176 37.5198 18.8956 35.8985 19.4516C34.2771 20.0079 33.1088 20.2861 32.3935 20.2864C31.8371 20.2864 30.7125 20.04 29.0196 19.547C27.3268 19.0541 25.8842 18.8076 24.692 18.8076C21.8944 18.8076 19.5776 19.9841 17.7417 22.3372C15.9057 24.689 14.9878 27.7329 14.9878 31.4687C14.995 33.5364 15.3001 35.5924 15.8938 37.5731C16.5471 39.7374 17.4514 41.8179 18.5881 43.7721C19.7962 45.8861 21.0122 47.4717 22.2362 48.5287C23.4601 49.5858 24.692 50.1143 25.9319 50.1143C26.7585 50.1143 27.8354 49.84 29.1627 49.2915C30.49 48.7431 31.6544 48.4688 32.6558 48.4689C33.6572 48.4689 34.8851 48.7313 36.3396 49.256C37.794 49.781 38.9345 50.0434 39.7611 50.0431C40.8102 50.0431 41.8593 49.6456 42.9084 48.8507C43.9574 48.0557 45.0065 46.8555 46.0557 45.25C46.7197 44.2471 47.3209 43.2039 47.8559 42.1266C48.3369 41.1589 48.7396 40.1542 49.06 39.1222C47.6135 38.6935 46.3259 37.6682 45.1974 36.0465C44.0759 34.4485 43.4838 32.5391 43.5044 30.5869C43.5091 29.2627 43.8063 27.9558 44.3748 26.7597C44.9549 25.5118 46.1272 24.1409 47.8916 22.647C46.7631 21.2481 45.5709 20.2266 44.3152 19.5827C43.0143 18.9284 41.5748 18.5974 40.1188 18.6176L40.1188 18.6176ZM39.7135 9.41409C36.8681 10.065 34.8295 11.273 33.5976 13.0382C32.3657 14.8025 31.7339 16.8926 31.7021 19.3084C32.942 19.2451 33.9355 19.0463 34.6826 18.7122C35.5038 18.3262 36.2472 17.7929 36.8761 17.1388C37.8553 16.1866 38.6265 15.0419 39.1413 13.7768C39.6182 12.5687 39.8566 11.4562 39.8566 10.4391C39.8566 10.2802 39.8486 10.1214 39.8327 9.96172C39.811 9.77572 39.7711 9.5923 39.7135 9.41411L39.7135 9.41409ZM32.5 1.08887C49.8743 1.08887 63.959 15.173 63.959 32.5482C63.959 49.9224 49.8743 64.0067 32.5 64.0067C15.1257 64.0067 1.04102 49.9224 1.04102 32.5482C1.04102 15.1731 15.1257 1.08887 32.5 1.08887V1.08887Z" fill="black"/>
</svg>
