<svg xmlns="http://www.w3.org/2000/svg" width="49" height="49" viewBox="0 0 49 49">
  <g id="Group_14" data-name="Group 14" transform="translate(-128 -69)">
    <g id="Group_13" data-name="Group 13">
      <g id="Ellipse_7" data-name="Ellipse 7" transform="translate(128 69)" fill="#bd5d38" stroke="#ebb181" stroke-width="1">
        <circle cx="24.5" cy="24.5" r="24.5" stroke="none"/>
        <circle cx="24.5" cy="24.5" r="24" fill="none"/>
      </g>
      <path id="Path_14" data-name="Path 14" d="M602.24,130.336h0c8.846-9.276,11.823-12.524,13.1-13.7.264-.248.384,0,.384,0s8.236,9.069,12.244,14.195c.643.82.143.056-.811-.941" transform="translate(-463 -37)" fill="none" stroke="#fff" stroke-width="3"/>
      <path id="Path_15" data-name="Path 15" d="M602.214,127.56h0c7.377-7.412,9.859-10.008,10.923-10.949.22-.2.32,0,.32,0s6.868,7.246,10.211,11.343c.011.014-.484-.618-.244-.393.219.5-1.527-1.862-2.576-2.869" transform="translate(-461 -27)" fill="none" stroke="#fff" stroke-width="3"/>
    </g>
  </g>
</svg>
