<svg xmlns="http://www.w3.org/2000/svg" width="65" height="65" viewBox="0 0 65 65">
  <g id="Group_12" data-name="Group 12" transform="translate(-201 -266)">
    <g id="Group_8" data-name="Group 8" transform="translate(92 92)">
      <rect id="Rectangle_1" data-name="Rectangle 1" width="65" height="65" rx="13" transform="translate(109 174)" fill="#fff"/>
    </g>
    <circle id="Ellipse_1" data-name="Ellipse 1" cx="29.5" cy="29.5" r="29.5" transform="translate(204 269)" fill="#35ccff"/>
    <path id="Path_2" data-name="Path 2" d="M126.819,78.453l-22.881,35.933,13.8,13.9a29.6,29.6,0,0,0,33.123-25.8Z" transform="translate(112.067 199.608)" fill="#00baff"/>
    <path id="Path_3" data-name="Path 3" d="M173.252,76.876a9.564,9.564,0,0,1-2.927-8.63A6.894,6.894,0,0,0,163.72,60.3a6.9,6.9,0,0,0-6.888,8.571,9.412,9.412,0,0,1-2.2,8.789A13.133,13.133,0,0,0,151,86.672c0,8.032,3.126,11.9,7.6,13.123a10.637,10.637,0,0,1,4.182-.753,10.9,10.9,0,0,1,4.028.686c5.519-1.106,8.137-3.794,9.963-10A13.43,13.43,0,0,0,173.252,76.876Z" transform="translate(70.438 215.667)" fill="#333"/>
    <path id="Path_4" data-name="Path 4" d="M263.468,76.877a9.564,9.564,0,0,1-2.927-8.63A6.881,6.881,0,0,0,253,60.34v38.7a10.022,10.022,0,0,1,4.5.907c5.221-.814,7.719-4.188,9.494-10.22A13.43,13.43,0,0,0,263.468,76.877Z" transform="translate(-19.778 215.665)"/>
    <path id="Path_5" data-name="Path 5" d="M176.289,169.772c0-5.237,4.2-17.364,9.371-17.364s9.371,12.189,9.371,17.364a9.371,9.371,0,0,1-18.742,0Z" transform="translate(48.073 134.195)" fill="#fff"/>
    <path id="Path_6" data-name="Path 6" d="M253.511,152.408a3.381,3.381,0,0,0-.511.04v26.681c.169.009.34.014.511.014a9.371,9.371,0,0,0,9.371-9.371C262.882,164.6,258.687,152.408,253.511,152.408Z" transform="translate(-19.778 134.195)" fill="#c0c2c1"/>
    <ellipse id="Ellipse_2" data-name="Ellipse 2" cx="1.543" cy="2.095" rx="1.543" ry="2.095" transform="translate(228.733 281.862)" fill="#e6e6e6"/>
    <ellipse id="Ellipse_3" data-name="Ellipse 3" cx="0.765" cy="1.358" rx="0.765" ry="1.358" transform="translate(229.511 283.075)" fill="#000100"/>
    <ellipse id="Ellipse_4" data-name="Ellipse 4" cx="1.543" cy="2.095" rx="1.543" ry="2.095" transform="translate(234.229 281.862)" fill="#e6e6e6"/>
    <ellipse id="Ellipse_5" data-name="Ellipse 5" cx="0.765" cy="1.358" rx="0.765" ry="1.358" transform="translate(235.007 283.075)" fill="#000100"/>
    <path id="Path_7" data-name="Path 7" d="M221.086,136.249c.5,1.075-3.335,3.115-4.672,3.115-1.668,0-5.15-2.465-4.672-3.115.892-1.213,2.839-3.17,4.437-3.17C217.331,133.079,220.743,135.518,221.086,136.249Z" transform="translate(16.754 151.292)" fill="#fe9a0f"/>
    <path id="Path_8" data-name="Path 8" d="M257.618,136.547A11.848,11.848,0,0,0,253,133.416v6.243C254.382,139.608,258.115,137.608,257.618,136.547Z" transform="translate(-19.778 150.994)" fill="#e2810c"/>
    <path id="Path_9" data-name="Path 9" d="M282.991,300.632a5.059,5.059,0,0,0,3,2.846,2.329,2.329,0,0,1,1.8,2.013q.022.2.061.41a5.32,5.32,0,0,0,1.069,2.341,1.691,1.691,0,0,1-1.024,2.7l-9.825,1.862a2.517,2.517,0,0,1-2.621-3.777l5.425-8.505A1.22,1.22,0,0,1,282.991,300.632Z" transform="translate(-39.309 3.683)" fill="#dd7f10"/>
    <path id="Path_10" data-name="Path 10" d="M219.923,162.793a6.276,6.276,0,0,1-4.24-2.034l.478-.5a5.334,5.334,0,0,0,4.13,1.824,4.521,4.521,0,0,0,2.94-1.77l.57.394a5.179,5.179,0,0,1-3.439,2.065A4.255,4.255,0,0,1,219.923,162.793Z" transform="translate(13.229 127.253)" fill="#ae4e32"/>
    <path id="Path_11" data-name="Path 11" d="M253.3,162.5c-.1.01-.2.015-.3.017v.693c.123,0,.246-.008.369-.021a5.179,5.179,0,0,0,3.439-2.065l-.57-.394A4.52,4.52,0,0,1,253.3,162.5Z" transform="translate(-19.778 126.838)" fill="#9e402b"/>
    <circle id="Ellipse_6" data-name="Ellipse 6" cx="3.147" cy="3.147" r="3.147" transform="translate(241.872 302.681)"/>
    <path id="Path_12" data-name="Path 12" d="M166.975,289s3.363,4.1,5.76,5.024-1.14,3.607-4.374,1.572S166.975,289,166.975,289Z" transform="translate(56.776 13.38)" fill="#333"/>
    <path id="Path_13" data-name="Path 13" d="M107.155,300.632a5.059,5.059,0,0,1-3,2.846,2.329,2.329,0,0,0-1.8,2.013q-.022.2-.061.41a5.32,5.32,0,0,1-1.069,2.341,1.691,1.691,0,0,0,1.024,2.7l9.825,1.862a2.517,2.517,0,0,0,2.621-3.777l-5.425-8.505A1.22,1.22,0,0,0,107.155,300.632Z" transform="translate(114.788 3.683)" fill="#fe9b0e"/>
  </g>
</svg>
